<svg width="24" height="24" viewBox="0 0 24 24" fill="none" xmlns="http://www.w3.org/2000/svg">
<path d="M15.0008 3.75C13.4687 3.75118 11.967 4.17857 10.6639 4.98437C9.3607 5.79017 8.3074 6.94262 7.62176 8.31281C6.80609 8.19385 5.97467 8.24424 5.17934 8.46082C4.38401 8.67741 3.64184 9.05555 2.99912 9.57166C2.3564 10.0878 1.82692 10.7308 1.4437 11.4606C1.06048 12.1904 0.831747 12.9913 0.771766 13.8134C0.711785 14.6355 0.821843 15.4612 1.09507 16.2388C1.36831 17.0165 1.79885 17.7296 2.35985 18.3335C2.92085 18.9375 3.60028 19.4193 4.35575 19.749C5.11122 20.0788 5.92653 20.2493 6.75082 20.25H15.0008C17.1889 20.25 19.2873 19.3808 20.8345 17.8336C22.3816 16.2865 23.2508 14.188 23.2508 12C23.2508 9.81196 22.3816 7.71354 20.8345 6.16637C19.2873 4.61919 17.1889 3.75 15.0008 3.75ZM15.0008 18.75H6.75082C5.55735 18.75 4.41275 18.2759 3.56884 17.432C2.72493 16.5881 2.25082 15.4435 2.25082 14.25C2.25082 13.0565 2.72493 11.9119 3.56884 11.068C4.41275 10.2241 5.55735 9.75 6.75082 9.75C6.85394 9.75 6.95707 9.75 7.05926 9.76031C6.85415 10.4892 6.75037 11.2428 6.75082 12C6.75082 12.1989 6.82984 12.3897 6.97049 12.5303C7.11114 12.671 7.30191 12.75 7.50082 12.75C7.69973 12.75 7.8905 12.671 8.03115 12.5303C8.1718 12.3897 8.25082 12.1989 8.25082 12C8.25082 10.665 8.6467 9.35993 9.3884 8.2499C10.1301 7.13987 11.1843 6.2747 12.4177 5.76381C13.6511 5.25292 15.0083 5.11925 16.3177 5.3797C17.6271 5.64015 18.8298 6.28302 19.7738 7.22703C20.7178 8.17103 21.3607 9.37377 21.6211 10.6831C21.8816 11.9925 21.7479 13.3497 21.237 14.5831C20.7261 15.8165 19.861 16.8707 18.7509 17.6124C17.6409 18.3541 16.3358 18.75 15.0008 18.75Z" fill="#6A7282"/>
</svg>
