<svg width="24" height="24" viewBox="0 0 24 24" fill="none" xmlns="http://www.w3.org/2000/svg">
<path d="M18.7505 14.25C18.0876 14.2496 17.4434 14.47 16.9196 14.8762L14.753 13.1887C14.9166 12.8138 15.0008 12.4091 15.0005 12C15.0005 11.9306 15.0005 11.8612 14.993 11.7928L16.2333 11.3794C16.6257 11.9846 17.223 12.4281 17.9158 12.6288C18.6086 12.8295 19.3505 12.7738 20.0056 12.4721C20.6607 12.1703 21.1852 11.6426 21.483 10.9857C21.7807 10.3287 21.8318 9.58649 21.6269 8.89494C21.422 8.20338 20.9747 7.60881 20.3672 7.22012C19.7596 6.83144 19.0323 6.67466 18.3185 6.77852C17.6048 6.88238 16.9523 7.23991 16.4807 7.78563C16.0091 8.33135 15.7498 9.02871 15.7505 9.74999C15.7505 9.81936 15.7505 9.88874 15.758 9.95718L14.5177 10.3706C14.2458 9.95027 13.873 9.60465 13.4334 9.36525C12.9937 9.12585 12.5011 9.00028 12.0005 8.99999C11.835 9.00033 11.6697 9.01413 11.5064 9.04124L10.8652 7.59374C11.4189 7.15133 11.7981 6.52716 11.9355 5.83188C12.073 5.13659 11.9599 4.41509 11.6162 3.79525C11.2725 3.17541 10.7205 2.69727 10.0579 2.44556C9.3954 2.19386 8.66514 2.18485 7.99659 2.42014C7.32804 2.65542 6.76438 3.11981 6.40552 3.73098C6.04665 4.34216 5.91576 5.06065 6.03603 5.75911C6.15631 6.45758 6.51999 7.0909 7.06261 7.54684C7.60524 8.00277 8.29176 8.25187 9.0005 8.24999C9.16603 8.24965 9.33126 8.23585 9.49456 8.20874L10.1358 9.65249C9.59202 10.0829 9.2146 10.6888 9.06805 11.3666C8.92151 12.0445 9.01494 12.7522 9.33237 13.3687L6.92206 15.51C6.31548 15.1011 5.58059 14.9274 4.85513 15.0216C4.12967 15.1157 3.46345 15.4712 2.98134 16.0214C2.49924 16.5716 2.23436 17.2788 2.23634 18.0103C2.23832 18.7419 2.50703 19.4476 2.99211 19.9952C3.47719 20.5428 4.14532 20.8946 4.87128 20.9849C5.59724 21.0751 6.33119 20.8974 6.93554 20.4852C7.5399 20.073 7.97317 19.4546 8.15415 18.7458C8.33513 18.0369 8.25139 17.2865 7.91862 16.635L10.3289 14.4937C10.8508 14.8451 11.4702 15.023 12.099 15.0022C12.7278 14.9813 13.334 14.7627 13.8314 14.3775L15.998 16.065C15.8349 16.4388 15.7507 16.8422 15.7505 17.25C15.7505 17.8433 15.9264 18.4234 16.2561 18.9167C16.5857 19.41 17.0543 19.7946 17.6025 20.0216C18.1506 20.2487 18.7538 20.3081 19.3358 20.1923C19.9177 20.0766 20.4523 19.7909 20.8718 19.3713C21.2914 18.9518 21.5771 18.4172 21.6929 17.8353C21.8086 17.2533 21.7492 16.6501 21.5221 16.1019C21.2951 15.5538 20.9106 15.0852 20.4172 14.7556C19.9239 14.4259 19.3438 14.25 18.7505 14.25ZM18.7505 8.24999C19.0472 8.24999 19.3372 8.33796 19.5839 8.50278C19.8305 8.66761 20.0228 8.90187 20.1363 9.17596C20.2499 9.45005 20.2796 9.75165 20.2217 10.0426C20.1638 10.3336 20.0209 10.6009 19.8112 10.8106C19.6014 11.0204 19.3341 11.1633 19.0431 11.2212C18.7522 11.279 18.4506 11.2493 18.1765 11.1358C17.9024 11.0223 17.6681 10.83 17.5033 10.5833C17.3385 10.3367 17.2505 10.0467 17.2505 9.74999C17.2505 9.35216 17.4085 8.97063 17.6898 8.68933C17.9711 8.40802 18.3527 8.24999 18.7505 8.24999ZM7.5005 5.24999C7.5005 4.95332 7.58847 4.66331 7.7533 4.41663C7.91812 4.16996 8.15239 3.9777 8.42647 3.86417C8.70056 3.75064 9.00216 3.72093 9.29313 3.77881C9.58411 3.83669 9.85138 3.97955 10.0612 4.18933C10.2709 4.39911 10.4138 4.66638 10.4717 4.95735C10.5296 5.24833 10.4999 5.54993 10.3863 5.82401C10.2728 6.0981 10.0805 6.33237 9.83385 6.49719C9.58718 6.66202 9.29717 6.74999 9.0005 6.74999C8.60267 6.74999 8.22114 6.59195 7.93984 6.31065C7.65854 6.02934 7.5005 5.64781 7.5005 5.24999ZM5.2505 19.5C4.95383 19.5 4.66382 19.412 4.41714 19.2472C4.17047 19.0824 3.97821 18.8481 3.86468 18.574C3.75115 18.2999 3.72144 17.9983 3.77932 17.7074C3.8372 17.4164 3.98006 17.1491 4.18984 16.9393C4.39962 16.7296 4.66689 16.5867 4.95786 16.5288C5.24884 16.4709 5.55044 16.5006 5.82453 16.6142C6.09861 16.7277 6.33288 16.92 6.4977 17.1666C6.66253 17.4133 6.7505 17.7033 6.7505 18C6.7505 18.3978 6.59246 18.7793 6.31116 19.0606C6.02986 19.342 5.64832 19.5 5.2505 19.5ZM10.5005 12C10.5005 11.7033 10.5885 11.4133 10.7533 11.1666C10.9181 10.92 11.1524 10.7277 11.4265 10.6142C11.7006 10.5006 12.0022 10.4709 12.2931 10.5288C12.5841 10.5867 12.8514 10.7296 13.0612 10.9393C13.2709 11.1491 13.4138 11.4164 13.4717 11.7074C13.5296 11.9983 13.4999 12.2999 13.3863 12.574C13.2728 12.8481 13.0805 13.0824 12.8339 13.2472C12.5872 13.412 12.2972 13.5 12.0005 13.5C11.6027 13.5 11.2211 13.342 10.9398 13.0606C10.6585 12.7793 10.5005 12.3978 10.5005 12ZM18.7505 18.75C18.4538 18.75 18.1638 18.662 17.9171 18.4972C17.6705 18.3324 17.4782 18.0981 17.3647 17.824C17.2511 17.5499 17.2214 17.2483 17.2793 16.9574C17.3372 16.6664 17.4801 16.3991 17.6898 16.1893C17.8996 15.9796 18.1669 15.8367 18.4579 15.7788C18.7488 15.7209 19.0504 15.7506 19.3245 15.8642C19.5986 15.9777 19.8329 16.17 19.9977 16.4166C20.1625 16.6633 20.2505 16.9533 20.2505 17.25C20.2505 17.6478 20.0925 18.0293 19.8112 18.3106C19.5299 18.592 19.1483 18.75 18.7505 18.75Z" fill="#6A7282"/>
</svg>
