<svg width="24" height="24" viewBox="0 0 24 24" fill="none" xmlns="http://www.w3.org/2000/svg">
<path d="M9.28687 12.0572C9.14985 12.0003 8.99904 11.9854 8.85352 12.0143C8.70801 12.0431 8.57432 12.1145 8.46937 12.2194L6.43969 14.25H4.5C4.30109 14.25 4.11032 14.329 3.96967 14.4697C3.82902 14.6103 3.75 14.8011 3.75 15V18.75C3.75 18.9489 3.82902 19.1397 3.96967 19.2803C4.11032 19.421 4.30109 19.5 4.5 19.5H6.43969L8.46937 21.5306C8.57427 21.6356 8.70796 21.7072 8.85352 21.7361C8.99908 21.7651 9.14998 21.7503 9.28709 21.6935C9.42421 21.6367 9.54139 21.5404 9.62379 21.417C9.70619 21.2935 9.75012 21.1484 9.75 21V12.75C9.74997 12.6017 9.70595 12.4567 9.62352 12.3334C9.54108 12.21 9.42393 12.1139 9.28687 12.0572ZM8.25 19.1897L7.28063 18.2194C7.21092 18.1497 7.12818 18.0945 7.03714 18.0569C6.94609 18.0193 6.84852 17.9999 6.75 18H5.25V15.75H6.75C6.84852 15.7501 6.94609 15.7307 7.03714 15.6931C7.12818 15.6555 7.21092 15.6003 7.28063 15.5306L8.25 14.5603V19.1897ZM14.25 16.875C14.2492 17.5365 14.0759 18.1864 13.747 18.7603C13.4182 19.3343 12.9453 19.8126 12.375 20.1478C12.2042 20.2328 12.0075 20.2496 11.8248 20.1947C11.6421 20.1397 11.4872 20.0173 11.3916 19.8522C11.2961 19.6871 11.267 19.4918 11.3103 19.306C11.3537 19.1202 11.4662 18.9579 11.625 18.8522C11.9688 18.6492 12.2538 18.3601 12.4518 18.0134C12.6497 17.6666 12.7539 17.2743 12.7539 16.875C12.7539 16.4757 12.6497 16.0834 12.4518 15.7366C12.2538 15.3899 11.9688 15.1008 11.625 14.8978C11.4662 14.7921 11.3537 14.6298 11.3103 14.444C11.267 14.2582 11.2961 14.0629 11.3916 13.8978C11.4872 13.7327 11.6421 13.6103 11.8248 13.5553C12.0075 13.5004 12.2042 13.5172 12.375 13.6022C12.9453 13.9374 13.4182 14.4157 13.747 14.9897C14.0759 15.5636 14.2492 16.2135 14.25 16.875ZM20.0306 7.71938L14.7806 2.46938C14.7109 2.39975 14.6282 2.34454 14.5371 2.3069C14.4461 2.26926 14.3485 2.24992 14.25 2.25H5.25C4.85218 2.25 4.47064 2.40804 4.18934 2.68934C3.90804 2.97064 3.75 3.35218 3.75 3.75V11.25C3.75 11.4489 3.82902 11.6397 3.96967 11.7803C4.11032 11.921 4.30109 12 4.5 12C4.69891 12 4.88968 11.921 5.03033 11.7803C5.17098 11.6397 5.25 11.4489 5.25 11.25V3.75H13.5V8.25C13.5 8.44891 13.579 8.63968 13.7197 8.78033C13.8603 8.92098 14.0511 9 14.25 9H18.75V20.25H15.75C15.5511 20.25 15.3603 20.329 15.2197 20.4697C15.079 20.6103 15 20.8011 15 21C15 21.1989 15.079 21.3897 15.2197 21.5303C15.3603 21.671 15.5511 21.75 15.75 21.75H18.75C19.1478 21.75 19.5294 21.592 19.8107 21.3107C20.092 21.0294 20.25 20.6478 20.25 20.25V8.25C20.2501 8.15148 20.2307 8.05391 20.1931 7.96286C20.1555 7.87182 20.1003 7.78908 20.0306 7.71938ZM15 4.81031L17.6897 7.5H15V4.81031Z" fill="#6A7282"/>
</svg>
